<svg xmlns="http://www.w3.org/2000/svg" viewBox="0 0 64 64" fill="none" role="img" aria-label="LocateFlow">
  <rect width="64" height="64" rx="15" fill="#07101F"/>
  <g transform="translate(4 4) scale(0.56)">
    <path d="M18 40 L12 8 L34 24Z" fill="#8C9AB2"/>
    <path d="M19 37 L15 14 L30 24Z" fill="#C4A090" opacity="0.9"/>
    <path d="M82 40 L88 8 L66 24Z" fill="#8C9AB2"/>
    <path d="M81 37 L85 14 L70 24Z" fill="#C4A090" opacity="0.9"/>
    <ellipse cx="50" cy="58" rx="36" ry="31" fill="#8C9AB2"/>
    <ellipse cx="50" cy="45" rx="24" ry="14" fill="#B8C2D0" opacity="0.42"/>
    <ellipse cx="18" cy="66" rx="12" ry="9" fill="#C0CAD8" opacity="0.4"/>
    <ellipse cx="82" cy="66" rx="12" ry="9" fill="#C0CAD8" opacity="0.4"/>
    <ellipse cx="33" cy="51" rx="16" ry="13" fill="#0C1525" transform="rotate(-6 33 51)"/>
    <ellipse cx="67" cy="51" rx="16" ry="13" fill="#0C1525" transform="rotate(6 67 51)"/>
    <rect x="44" y="46" width="12" height="10" rx="5" fill="#0C1525"/>
    <path d="M20 43 Q50 36 80 43" stroke="#0C1525" stroke-width="8" stroke-linecap="round" fill="none"/>
    <circle cx="33" cy="51" r="8" fill="#2E5FB0"/>
    <circle cx="33" cy="51" r="5" fill="#04080F"/>
    <circle cx="35.5" cy="48.5" r="1.8" fill="#FFFFFF" opacity="0.75"/>
    <circle cx="67" cy="51" r="8" fill="#2E5FB0"/>
    <circle cx="67" cy="51" r="5" fill="#04080F"/>
    <circle cx="69.5" cy="48.5" r="1.8" fill="#FFFFFF" opacity="0.75"/>
    <path d="M46 66 L50 72 L54 66 Q50 63 46 66Z" fill="#0C1525"/>
    <circle cx="17" cy="67" r="1.3" fill="#0C1525" opacity="0.26"/>
    <circle cx="23" cy="67" r="1.3" fill="#0C1525" opacity="0.26"/>
    <circle cx="30" cy="67" r="1.3" fill="#0C1525" opacity="0.26"/>
    <circle cx="70" cy="67" r="1.3" fill="#0C1525" opacity="0.26"/>
    <circle cx="77" cy="67" r="1.3" fill="#0C1525" opacity="0.26"/>
    <circle cx="83" cy="67" r="1.3" fill="#0C1525" opacity="0.26"/>
    <ellipse cx="50" cy="76" rx="17" ry="10" fill="#C8D0DC" opacity="0.3"/>
  </g>
</svg>
