<svg xmlns="http://www.w3.org/2000/svg" viewBox="0 0 250 78" fill="none" role="img" aria-label="Move Operations">
  <svg x="8" y="10" width="56" height="56" viewBox="0 0 64 64" fill="none">
    <rect width="64" height="64" rx="15" fill="#07101F"/>
    <g transform="translate(4 4) scale(0.56)">
      <path d="M18 40 L12 8 L34 24Z" fill="#8C9AB2"/>
      <path d="M19 37 L15 14 L30 24Z" fill="#C4A090" opacity="0.9"/>
      <path d="M82 40 L88 8 L66 24Z" fill="#8C9AB2"/>
      <path d="M81 37 L85 14 L70 24Z" fill="#C4A090" opacity="0.9"/>
      <ellipse cx="50" cy="58" rx="36" ry="31" fill="#8C9AB2"/>
      <ellipse cx="50" cy="45" rx="24" ry="14" fill="#B8C2D0" opacity="0.42"/>
      <ellipse cx="33" cy="51" rx="16" ry="13" fill="#0C1525" transform="rotate(-6 33 51)"/>
      <ellipse cx="67" cy="51" rx="16" ry="13" fill="#0C1525" transform="rotate(6 67 51)"/>
      <rect x="44" y="46" width="12" height="10" rx="5" fill="#0C1525"/>
      <path d="M20 43 Q50 36 80 43" stroke="#0C1525" stroke-width="8" stroke-linecap="round"/>
      <circle cx="33" cy="51" r="8" fill="#CBA45E"/>
      <circle cx="33" cy="51" r="5" fill="#04080F"/>
      <circle cx="67" cy="51" r="8" fill="#CBA45E"/>
      <circle cx="67" cy="51" r="5" fill="#04080F"/>
      <path d="M46 66 L50 72 L54 66 Q50 63 46 66Z" fill="#0C1525"/>
      <ellipse cx="50" cy="76" rx="17" ry="10" fill="#C8D0DC" opacity="0.3"/>
    </g>
  </svg>
  <text x="78" y="42" font-family="Playfair Display, Didot, Georgia, serif" font-size="32" font-weight="900" fill="#EFF3FA">Move</text>
  <text x="80" y="58" font-family="DM Sans, Inter, system-ui, sans-serif" font-size="9" font-weight="800" letter-spacing="2.1" fill="#CBA45E">OPERATIONS</text>
</svg>
