<svg xmlns="http://www.w3.org/2000/svg" viewBox="0 0 512 512" fill="none" role="img" aria-label="LocateFlow">
  <defs>
    <linearGradient id="ic-bg" x1="0" y1="0" x2="512" y2="512" gradientUnits="userSpaceOnUse">
      <stop offset="0%" stop-color="#131C2C"></stop><stop offset="55%" stop-color="#0A0F18"></stop><stop offset="100%" stop-color="#06080F"></stop>
    </linearGradient>
    <radialGradient id="ic-glow" cx="0.36" cy="0.28" r="0.85">
      <stop offset="0%" stop-color="#7FB6E8" stop-opacity="0.32"></stop>
      <stop offset="55%" stop-color="#7FB6E8" stop-opacity="0.10"></stop>
      <stop offset="100%" stop-color="#06080F" stop-opacity="0"></stop>
    </radialGradient>
  </defs>
  <rect width="512" height="512" rx="118" fill="url(#ic-bg)"></rect>
  <rect width="512" height="512" rx="118" fill="url(#ic-glow)"></rect>
  <g transform="translate(86 70) scale(3.4)">
    <defs>
    <linearGradient id="ic-mask" x1="22" y1="44" x2="78" y2="26" gradientUnits="userSpaceOnUse">
      <stop offset="0%" stop-color="#56A8F0"></stop>
      <stop offset="100%" stop-color="#9CCBF2"></stop>
    </linearGradient>
    <linearGradient id="ic-fur" x1="50" y1="6" x2="50" y2="56" gradientUnits="userSpaceOnUse">
      <stop offset="0%" stop-color="#D9E2EE"></stop>
      <stop offset="100%" stop-color="#9DAAC0"></stop>
    </linearGradient>
    <linearGradient id="ic-box" x1="26" y1="56" x2="74" y2="92" gradientUnits="userSpaceOnUse">
      <stop offset="0%" stop-color="#8FC0EE"></stop>
      <stop offset="100%" stop-color="#5C9DDC"></stop>
    </linearGradient>
  </defs>

  
  <path d="M33 24 Q24 4 43 16 Q40 22 33 24 Z" fill="url(#ic-fur)"></path>
  <path d="M67 24 Q76 4 57 16 Q60 22 67 24 Z" fill="url(#ic-fur)"></path>
  <path d="M35 21 Q29 9 42 16 Q39 19 35 21 Z" fill="#6B788E"></path>
  <path d="M65 21 Q71 9 58 16 Q61 19 65 21 Z" fill="#6B788E"></path>
  
  <path d="M50 13 C33 13 27 27 27 39 C27 52 38 60 50 60 C62 60 73 52 73 39 C73 27 67 13 50 13 Z" fill="url(#ic-fur)"></path>
  
  <path d="M50 18 Q45 31 50 41 Q55 31 50 18 Z" fill="#EEF3FA"></path>
  <ellipse cx="50" cy="48" rx="14" ry="11" fill="#EEF3FA"></ellipse>
  
  <g fill="url(#ic-mask)">
    <path d="M29 35 Q36 28 45 32 Q50 35 48 40 Q45 46 36 45 Q28 44 29 35 Z"></path>
    <path d="M71 35 Q64 28 55 32 Q50 35 52 40 Q55 46 64 45 Q72 44 71 35 Z"></path>
    <path d="M45 33 Q50 31 55 33 L55 39 Q50 36 45 39 Z"></path>
  </g>
  
  <circle cx="40" cy="37" r="5.4" fill="#0B1018"></circle>
  <circle cx="60" cy="37" r="5.4" fill="#0B1018"></circle>
  <circle cx="41.6" cy="35.4" r="2" fill="#EEF3FA"></circle>
  <circle cx="61.6" cy="35.4" r="2" fill="#EEF3FA"></circle>
  
  <path d="M50 44 q-3.6 0 -3.6 3 q0 3 3.6 3.7 q3.6 -0.7 3.6 -3.7 q0 -3 -3.6 -3 z" fill="#3D4A5E"></path>
  
  <path d="M45 53 q5 4 10 0" stroke="#6B788E" stroke-width="1.6" fill="none" stroke-linecap="round"></path>

  
  <path d="M24 60 L50 56 L76 60 L76 64 L24 64 Z" fill="#B7D6F2"></path>
  <path d="M24 64 L50 67 L50 90 L24 87 Z" fill="url(#ic-box)"></path>
  <path d="M76 64 L50 67 L50 90 L76 87 Z" fill="#4E8CCB"></path>
  
  <path d="M50 56 L50 90" stroke="#EAF2FB" stroke-width="2" stroke-linecap="round" opacity="0.85"></path>
  <path d="M24 62 L50 65 L76 62" stroke="#EAF2FB" stroke-width="1.6" fill="none" opacity="0.7"></path>
  
  <ellipse cx="30" cy="61" rx="6" ry="5" fill="#8A98AE"></ellipse>
  <ellipse cx="70" cy="61" rx="6" ry="5" fill="#8A98AE"></ellipse>
  <path d="M27 60 l1.6 0 M30 60 l1.6 0 M33 60 l1.6 0" stroke="#5E6B80" stroke-width="1" stroke-linecap="round"></path>
  <path d="M67 60 l1.6 0 M70 60 l1.6 0 M73 60 l1.6 0" stroke="#5E6B80" stroke-width="1" stroke-linecap="round"></path>
  </g>
  <rect x="2" y="2" width="508" height="508" rx="116" fill="none" stroke="#ffffff" stroke-opacity="0.07" stroke-width="2"></rect>
</svg>