<svg xmlns="http://www.w3.org/2000/svg" viewBox="0 0 1024 1024" fill="none" role="img" aria-label="LocateFlow">
  <defs>
    <linearGradient id="ai-bg" x1="0" y1="0" x2="1024" y2="1024" gradientUnits="userSpaceOnUse">
      <stop offset="0%" stop-color="#131C2C"/>
      <stop offset="55%" stop-color="#0A0F18"/>
      <stop offset="100%" stop-color="#06080F"/>
    </linearGradient>
    <radialGradient id="ai-glow" cx="0.36" cy="0.28" r="0.85">
      <stop offset="0%" stop-color="#7FB6E8" stop-opacity="0.32"/>
      <stop offset="55%" stop-color="#7FB6E8" stop-opacity="0.10"/>
      <stop offset="100%" stop-color="#06080F" stop-opacity="0"/>
    </radialGradient>
    <linearGradient id="ai-mask" x1="22" y1="44" x2="78" y2="26" gradientUnits="userSpaceOnUse">
      <stop offset="0%" stop-color="#56A8F0"/>
      <stop offset="100%" stop-color="#9CCBF2"/>
    </linearGradient>
    <linearGradient id="ai-fur" x1="50" y1="6" x2="50" y2="56" gradientUnits="userSpaceOnUse">
      <stop offset="0%" stop-color="#D9E2EE"/>
      <stop offset="100%" stop-color="#9DAAC0"/>
    </linearGradient>
    <linearGradient id="ai-box" x1="26" y1="56" x2="74" y2="92" gradientUnits="userSpaceOnUse">
      <stop offset="0%" stop-color="#8FC0EE"/>
      <stop offset="100%" stop-color="#5C9DDC"/>
    </linearGradient>
  </defs>
  <rect width="1024" height="1024" rx="236" fill="url(#ai-bg)"/>
  <rect width="1024" height="1024" rx="236" fill="url(#ai-glow)"/>
  <g transform="translate(172 140) scale(6.8)">
    <path d="M33 24 Q24 4 43 16 Q40 22 33 24 Z" fill="url(#ai-fur)"/>
    <path d="M67 24 Q76 4 57 16 Q60 22 67 24 Z" fill="url(#ai-fur)"/>
    <path d="M35 21 Q29 9 42 16 Q39 19 35 21 Z" fill="#6B788E"/>
    <path d="M65 21 Q71 9 58 16 Q61 19 65 21 Z" fill="#6B788E"/>
    <path d="M50 13 C33 13 27 27 27 39 C27 52 38 60 50 60 C62 60 73 52 73 39 C73 27 67 13 50 13 Z" fill="url(#ai-fur)"/>
    <path d="M50 18 Q45 31 50 41 Q55 31 50 18 Z" fill="#EEF3FA"/>
    <ellipse cx="50" cy="48" rx="14" ry="11" fill="#EEF3FA"/>
    <g fill="url(#ai-mask)">
      <path d="M29 35 Q36 28 45 32 Q50 35 48 40 Q45 46 36 45 Q28 44 29 35 Z"/>
      <path d="M71 35 Q64 28 55 32 Q50 35 52 40 Q55 46 64 45 Q72 44 71 35 Z"/>
      <path d="M45 33 Q50 31 55 33 L55 39 Q50 36 45 39 Z"/>
    </g>
    <circle cx="40" cy="37" r="5.4" fill="#0B1018"/>
    <circle cx="60" cy="37" r="5.4" fill="#0B1018"/>
    <circle cx="41.6" cy="35.4" r="2" fill="#EEF3FA"/>
    <circle cx="61.6" cy="35.4" r="2" fill="#EEF3FA"/>
    <path d="M50 44 q-3.6 0 -3.6 3 q0 3 3.6 3.7 q3.6 -0.7 3.6 -3.7 q0 -3 -3.6 -3 z" fill="#3D4A5E"/>
    <path d="M45 53 q5 4 10 0" stroke="#6B788E" stroke-width="1.6" fill="none" stroke-linecap="round"/>
    <path d="M24 60 L50 56 L76 60 L76 64 L24 64 Z" fill="#B7D6F2"/>
    <path d="M24 64 L50 67 L50 90 L24 87 Z" fill="url(#ai-box)"/>
    <path d="M76 64 L50 67 L50 90 L76 87 Z" fill="#4E8CCB"/>
    <path d="M50 56 L50 90" stroke="#EAF2FB" stroke-width="2" stroke-linecap="round" opacity="0.85"/>
    <path d="M24 62 L50 65 L76 62" stroke="#EAF2FB" stroke-width="1.6" fill="none" opacity="0.7"/>
    <ellipse cx="30" cy="61" rx="6" ry="5" fill="#8A98AE"/>
    <ellipse cx="70" cy="61" rx="6" ry="5" fill="#8A98AE"/>
    <path d="M27 60 l1.6 0 M30 60 l1.6 0 M33 60 l1.6 0" stroke="#5E6B80" stroke-width="1" stroke-linecap="round"/>
    <path d="M67 60 l1.6 0 M70 60 l1.6 0 M73 60 l1.6 0" stroke="#5E6B80" stroke-width="1" stroke-linecap="round"/>
  </g>
  <rect x="4" y="4" width="1016" height="1016" rx="232" fill="none" stroke="#ffffff" stroke-opacity="0.07" stroke-width="4"/>
</svg>
