
<svg xmlns="http://www.w3.org/2000/svg" width="0" height="0" style="position:absolute">
  <defs>
    <symbol id="i-pin" viewBox="0 0 24 24"><path fill="none" stroke="currentColor" stroke-width="1.6" stroke-linecap="round" stroke-linejoin="round" d="M12 21c-4.5-5.1-7-8.4-7-11.5a7 7 0 1 1 14 0c0 3.1-2.5 6.4-7 11.5z"></path><circle cx="12" cy="9.5" r="2.4" fill="none" stroke="currentColor" stroke-width="1.6"></circle></symbol>
    <symbol id="i-bolt" viewBox="0 0 24 24"><path fill="none" stroke="currentColor" stroke-width="1.6" stroke-linecap="round" stroke-linejoin="round" d="M13 3 5.5 13.5H11l-1 7.5 7.5-10.5H12z"></path></symbol>
    <symbol id="i-wifi" viewBox="0 0 24 24"><path fill="none" stroke="currentColor" stroke-width="1.6" stroke-linecap="round" d="M3 9.5a14 14 0 0 1 18 0M6 13a10 10 0 0 1 12 0M9 16.5a5.5 5.5 0 0 1 6 0"></path><circle cx="12" cy="20" r="1.1" fill="currentColor"></circle></symbol>
    <symbol id="i-shield" viewBox="0 0 24 24"><path fill="none" stroke="currentColor" stroke-width="1.6" stroke-linecap="round" stroke-linejoin="round" d="M12 3 4.5 6v6c0 4.5 3.2 7.8 7.5 9 4.3-1.2 7.5-4.5 7.5-9V6z"></path><path fill="none" stroke="currentColor" stroke-width="1.6" stroke-linecap="round" stroke-linejoin="round" d="m9 12 2.2 2.2L15 10.5"></path></symbol>
    <symbol id="i-play" viewBox="0 0 24 24"><rect x="3" y="5" width="18" height="14" rx="2.5" fill="none" stroke="currentColor" stroke-width="1.6"></rect><path d="M11 9.5 15 12l-4 2.5z" fill="currentColor"></path></symbol>
    <symbol id="i-bank" viewBox="0 0 24 24"><path fill="none" stroke="currentColor" stroke-width="1.6" stroke-linecap="round" stroke-linejoin="round" d="M3 10 12 4l9 6M5 10v9M9 10v9M15 10v9M19 10v9M3 20h18"></path></symbol>
    <symbol id="i-truck" viewBox="0 0 24 24"><path fill="none" stroke="currentColor" stroke-width="1.6" stroke-linecap="round" stroke-linejoin="round" d="M2 7h11v10H2zM13 10h4l4 4v3h-8zM7 20a2 2 0 1 0 0-4 2 2 0 0 0 0 4zM17 20a2 2 0 1 0 0-4 2 2 0 0 0 0 4z"></path></symbol>
    <symbol id="i-bell" viewBox="0 0 24 24"><path fill="none" stroke="currentColor" stroke-width="1.6" stroke-linecap="round" stroke-linejoin="round" d="M6 16V11a6 6 0 1 1 12 0v5l1.5 2h-15zM10 20a2 2 0 0 0 4 0"></path></symbol>
    <symbol id="i-home" viewBox="0 0 24 24"><path fill="none" stroke="currentColor" stroke-width="1.6" stroke-linecap="round" stroke-linejoin="round" d="M3 11 12 4l9 7v9h-6v-6h-6v6H3z"></path></symbol>
    <symbol id="i-grid" viewBox="0 0 24 24"><rect x="4" y="4" width="7" height="7" rx="1.5" fill="none" stroke="currentColor" stroke-width="1.6"></rect><rect x="13" y="4" width="7" height="7" rx="1.5" fill="none" stroke="currentColor" stroke-width="1.6"></rect><rect x="4" y="13" width="7" height="7" rx="1.5" fill="none" stroke="currentColor" stroke-width="1.6"></rect><rect x="13" y="13" width="7" height="7" rx="1.5" fill="none" stroke="currentColor" stroke-width="1.6"></rect></symbol>
    <symbol id="i-more" viewBox="0 0 24 24"><circle cx="6" cy="12" r="1.5" fill="currentColor"></circle><circle cx="12" cy="12" r="1.5" fill="currentColor"></circle><circle cx="18" cy="12" r="1.5" fill="currentColor"></circle></symbol>
    <symbol id="i-plus" viewBox="0 0 24 24"><path fill="none" stroke="currentColor" stroke-width="1.6" stroke-linecap="round" d="M12 5v14M5 12h14"></path></symbol>
    <symbol id="i-arrow-r" viewBox="0 0 24 24"><path fill="none" stroke="currentColor" stroke-width="1.6" stroke-linecap="round" stroke-linejoin="round" d="M5 12h14M13 6l6 6-6 6"></path></symbol>
    <symbol id="i-check" viewBox="0 0 24 24"><path fill="none" stroke="currentColor" stroke-width="1.6" stroke-linecap="round" stroke-linejoin="round" d="M5 12.5 10 17 19 7"></path></symbol>
    <symbol id="i-doc" viewBox="0 0 24 24"><path fill="none" stroke="currentColor" stroke-width="1.6" stroke-linecap="round" stroke-linejoin="round" d="M14 3H6a2 2 0 0 0-2 2v14a2 2 0 0 0 2 2h12a2 2 0 0 0 2-2V9zM14 3v6h6M8 13h8M8 17h5"></path></symbol>
    <symbol id="i-dollar" viewBox="0 0 24 24"><path fill="none" stroke="currentColor" stroke-width="1.6" stroke-linecap="round" stroke-linejoin="round" d="M12 3v18M16 7.5A3 3 0 0 0 13 5h-2a3 3 0 0 0 0 6h2a3 3 0 0 1 0 6h-2a3 3 0 0 1-3-2.5"></path></symbol>
    <symbol id="i-flame" viewBox="0 0 24 24"><path fill="none" stroke="currentColor" stroke-width="1.6" stroke-linecap="round" stroke-linejoin="round" d="M12 3s4 4 4 8a4 4 0 0 1-8 0 5 5 0 0 1 1-3c0 0 0 3 2 3 0-3 1-5 1-8zM8 15a4 4 0 0 0 8 0"></path></symbol>
    <symbol id="i-star" viewBox="0 0 24 24"><path fill="none" stroke="currentColor" stroke-width="1.6" stroke-linecap="round" stroke-linejoin="round" d="m12 3 2.8 5.7 6.2.9-4.5 4.4 1.1 6.2L12 17.3 6.4 20.2l1.1-6.2L3 9.6l6.2-.9z"></path></symbol>
    <symbol id="i-cog" viewBox="0 0 24 24"><circle cx="12" cy="12" r="3" fill="none" stroke="currentColor" stroke-width="1.6"></circle><path fill="none" stroke="currentColor" stroke-width="1.6" stroke-linecap="round" d="M12 2v3M12 19v3M4.9 4.9l2.1 2.1M17 17l2.1 2.1M2 12h3M19 12h3M4.9 19.1 7 17M17 7l2.1-2.1"></path></symbol>
    <symbol id="i-search" viewBox="0 0 24 24"><circle cx="11" cy="11" r="7" fill="none" stroke="currentColor" stroke-width="1.6"></circle><path d="m16.5 16.5 4 4" fill="none" stroke="currentColor" stroke-width="1.6" stroke-linecap="round"></path></symbol>
    <symbol id="i-signal" viewBox="0 0 24 24"><rect x="3" y="16" width="3" height="5" rx="0.8" fill="currentColor"></rect><rect x="8" y="12" width="3" height="9" rx="0.8" fill="currentColor"></rect><rect x="13" y="8" width="3" height="13" rx="0.8" fill="currentColor"></rect><rect x="18" y="4" width="3" height="17" rx="0.8" fill="currentColor"></rect></symbol>
    <symbol id="i-battery" viewBox="0 0 24 24"><rect x="2" y="7" width="18" height="10" rx="2.5" fill="none" stroke="currentColor" stroke-width="1.6"></rect><rect x="4" y="9" width="13" height="6" rx="1" fill="currentColor"></rect><rect x="21" y="10" width="1.6" height="4" rx="0.5" fill="currentColor"></rect></symbol>
    <symbol id="i-droplet" viewBox="0 0 24 24"><path fill="none" stroke="currentColor" stroke-width="1.6" stroke-linecap="round" stroke-linejoin="round" d="M12 3s6 7 6 11a6 6 0 0 1-12 0c0-4 6-11 6-11z"></path></symbol>
    <symbol id="i-phone" viewBox="0 0 24 24"><path fill="none" stroke="currentColor" stroke-width="1.6" stroke-linecap="round" stroke-linejoin="round" d="M5 4h4l2 5-2.5 1.5a11 11 0 0 0 5 5L15 13l5 2v4a2 2 0 0 1-2 2 15 15 0 0 1-14-14 2 2 0 0 1 2-3z"></path></symbol>
    <symbol id="i-heart" viewBox="0 0 24 24"><path fill="none" stroke="currentColor" stroke-width="1.6" stroke-linecap="round" stroke-linejoin="round" d="M12 20s-7-4-7-10a4.5 4.5 0 0 1 7-3.5A4.5 4.5 0 0 1 19 10c0 6-7 10-7 10z"></path></symbol>
  </defs>
</svg>