<svg xmlns="http://www.w3.org/2000/svg" viewBox="0 0 1200 630" fill="none" role="img" aria-label="Avoiding an internet gap when you move">
  <defs>
    <linearGradient id="flow" x1="0" y1="1" x2="1" y2="0">
      <stop offset="0%" stop-color="#3D6FD6"/>
      <stop offset="60%" stop-color="#5B8DEF"/>
      <stop offset="100%" stop-color="#DDE7F5"/>
    </linearGradient>
    <radialGradient id="tr" cx="0.15" cy="0.2" r="0.7">
      <stop offset="0%" stop-color="#5B8DEF" stop-opacity="0.18"/>
      <stop offset="100%" stop-color="#5B8DEF" stop-opacity="0"/>
    </radialGradient>
    <radialGradient id="br" cx="0.9" cy="0.85" r="0.6">
      <stop offset="0%" stop-color="#5B8DEF" stop-opacity="0.16"/>
      <stop offset="100%" stop-color="#5B8DEF" stop-opacity="0"/>
    </radialGradient>
  </defs>
  <rect width="1200" height="630" fill="#0A0F18"/>
  <rect width="1200" height="630" fill="url(#tr)"/>
  <rect width="1200" height="630" fill="url(#br)"/>
  <rect x="110" y="150" width="40" height="3" rx="1.5" fill="#5B8DEF"/>
  <text x="166" y="159" font-family="'Geist Mono', ui-monospace, monospace" font-size="22" letter-spacing="0.22em" fill="#83AAF5">LOGISTICS · INTERNET</text>
  <text x="110" y="306" font-family="Playfair Display, Didot, Georgia, serif" font-size="78" font-weight="500" fill="#ECF1F8" letter-spacing="0">Move without</text>
  <text x="110" y="392" font-family="Playfair Display, Didot, Georgia, serif" font-size="78" font-weight="500" fill="#ECF1F8" letter-spacing="0">an internet gap</text>
  <g transform="translate(890,300)" stroke="url(#flow)" stroke-width="7" stroke-linecap="round" fill="none">
    <path d="M-120 20 A 170 170 0 0 1 120 20"/>
    <path d="M-78 56 A 110 110 0 0 1 78 56"/>
    <path d="M-38 92 A 54 54 0 0 1 38 92"/>
  </g>
  <circle cx="890" cy="416" r="11" fill="#5B8DEF"/>
  <g transform="translate(110,470)">
    <path d="M0 40 Q 12 8, 30 26 T 64 14" stroke="url(#flow)" stroke-width="4" fill="none" stroke-linecap="round"/>
    <circle cx="0" cy="40" r="5" fill="#3D6FD6"/>
    <circle cx="64" cy="14" r="6" fill="#5B8DEF"/>
    <text x="84" y="32" font-family="Playfair Display, Didot, Georgia, serif" font-size="30" fill="#ECF1F8">LocateFlow</text>
  </g>
</svg>
