<svg xmlns="http://www.w3.org/2000/svg" viewBox="0 0 1200 630" fill="none" role="img" aria-label="Vehicle registration deadline after a move">
  <defs>
    <linearGradient id="flow" x1="0" y1="1" x2="1" y2="0">
      <stop offset="0%" stop-color="#5C9DDC"/>
      <stop offset="60%" stop-color="#7FB6E8"/>
      <stop offset="100%" stop-color="#DDE7F5"/>
    </linearGradient>
    <radialGradient id="tr" cx="0.15" cy="0.2" r="0.7">
      <stop offset="0%" stop-color="#7FB6E8" stop-opacity="0.18"/>
      <stop offset="100%" stop-color="#7FB6E8" stop-opacity="0"/>
    </radialGradient>
    <radialGradient id="br" cx="0.9" cy="0.85" r="0.6">
      <stop offset="0%" stop-color="#B49BFF" stop-opacity="0.16"/>
      <stop offset="100%" stop-color="#B49BFF" stop-opacity="0"/>
    </radialGradient>
  </defs>
  <rect width="1200" height="630" fill="#0A0F18"/>
  <rect width="1200" height="630" fill="url(#tr)"/>
  <rect width="1200" height="630" fill="url(#br)"/>
  <rect x="110" y="150" width="40" height="3" rx="1.5" fill="#7FB6E8"/>
  <text x="166" y="159" font-family="'Geist Mono', ui-monospace, monospace" font-size="22" letter-spacing="0.22em" fill="#A5C9F0">GOVERNMENT · DMV</text>
  <text x="110" y="306" font-family="Fraunces, Georgia, serif" font-size="78" font-weight="500" fill="#ECF1F8" letter-spacing="-0.02em">The other</text>
  <text x="110" y="392" font-family="Fraunces, Georgia, serif" font-size="78" font-weight="500" fill="#ECF1F8" letter-spacing="-0.02em">DMV deadline</text>
  <g transform="translate(800,235)" stroke="url(#flow)" stroke-width="6" stroke-linecap="round" stroke-linejoin="round">
    <path d="M2 118 L34 64 Q44 48 66 48 H154 Q176 48 186 64 L218 118"/>
    <line x1="-4" y1="118" x2="224" y2="118"/>
    <circle cx="52" cy="124" r="22" fill="#0A0F18"/>
    <circle cx="168" cy="124" r="22" fill="#0A0F18"/>
    <rect x="74" y="150" width="72" height="32" rx="6"/>
  </g>
  <g transform="translate(110,470)">
    <path d="M0 40 Q 12 8, 30 26 T 64 14" stroke="url(#flow)" stroke-width="4" fill="none" stroke-linecap="round"/>
    <circle cx="0" cy="40" r="5" fill="#5C9DDC"/>
    <circle cx="64" cy="14" r="6" fill="#7FB6E8"/>
    <text x="84" y="32" font-family="Fraunces, Georgia, serif" font-size="30" fill="#ECF1F8">LocateFlow</text>
  </g>
</svg>
